<mxfile host="drawio-plugin" modified="2022-10-11T08:07:24.931Z" agent="5.0 (Macintosh; Intel Mac OS X 10_15_7) AppleWebKit/537.36 (KHTML, like Gecko) Chrome/98.0.4758.102 Safari/537.36" etag="k9Oa9_OQe8N22DFDEGtX" version="15.5.4" type="embed"><diagram id="B0rq02993B2-hYQBSMJg" name="Page 1"><mxGraphModel dx="1891" dy="784" grid="1" gridSize="10" guides="1" tooltips="1" connect="1" arrows="1" fold="1" page="1" pageScale="1" pageWidth="827" pageHeight="1169" math="0" shadow="0"><root><mxCell id="0"/><mxCell id="1" parent="0"/><mxCell id="2" value="" style="shape=ext;double=1;rounded=0;whiteSpace=wrap;html=1;fontSize=12;align=center;verticalAlign=top;" vertex="1" parent="1"><mxGeometry x="-330" y="180" width="1850" height="900" as="geometry"/></mxCell><mxCell id="3" value="CamelliaRedisProxyServer.java" style="rounded=1;whiteSpace=wrap;html=1;" vertex="1" parent="1"><mxGeometry x="-200" y="270" width="180" height="60" as="geometry"/></mxCell><mxCell id="4" value="CommandDecoder.java" style="rounded=1;whiteSpace=wrap;html=1;" vertex="1" parent="1"><mxGeometry x="270" y="250" width="260" height="60" as="geometry"/></mxCell><mxCell id="5" value="ServerHandler.java" style="rounded=1;whiteSpace=wrap;html=1;" vertex="1" parent="1"><mxGeometry x="270" y="340" width="260" height="60" as="geometry"/></mxCell><mxCell id="6" value="AsyncCommandInvoker.java" style="rounded=1;whiteSpace=wrap;html=1;" vertex="1" parent="1"><mxGeometry x="270" y="430" width="260" height="60" as="geometry"/></mxCell><mxCell id="7" value="CommandsTransponder.java" style="rounded=1;whiteSpace=wrap;html=1;" vertex="1" parent="1"><mxGeometry x="270" y="525" width="260" height="60" as="geometry"/></mxCell><mxCell id="8" value="" style="endArrow=classic;html=1;" edge="1" parent="1" source="4" target="5"><mxGeometry width="50" height="50" relative="1" as="geometry"><mxPoint x="390" y="410" as="sourcePoint"/><mxPoint x="440" y="360" as="targetPoint"/></mxGeometry></mxCell><mxCell id="9" value="" style="endArrow=classic;html=1;" edge="1" parent="1" source="5" target="6"><mxGeometry width="50" height="50" relative="1" as="geometry"><mxPoint x="445" y="320" as="sourcePoint"/><mxPoint x="445" y="350" as="targetPoint"/></mxGeometry></mxCell><mxCell id="10" value="" style="endArrow=classic;html=1;" edge="1" parent="1" source="6" target="7"><mxGeometry width="50" height="50" relative="1" as="geometry"><mxPoint x="430" y="500" as="sourcePoint"/><mxPoint x="630" y="360" as="targetPoint"/></mxGeometry></mxCell><mxCell id="11" value="&lt;font style=&quot;font-size: 12px ; line-height: 120%&quot;&gt;plugins&lt;br&gt;&lt;/font&gt;" style="rounded=1;whiteSpace=wrap;html=1;align=center;spacingTop=6;spacing=9;verticalAlign=top;" vertex="1" parent="1"><mxGeometry x="605" y="450" width="195" height="170" as="geometry"/></mxCell><mxCell id="12" value="" style="endArrow=none;html=1;" edge="1" parent="1" source="7" target="11"><mxGeometry width="50" height="50" relative="1" as="geometry"><mxPoint x="540" y="670" as="sourcePoint"/><mxPoint x="790" y="560" as="targetPoint"/></mxGeometry></mxCell><mxCell id="13" value="AsyncCamelliaRedisTemplateChooser.java" style="rounded=1;whiteSpace=wrap;html=1;" vertex="1" parent="1"><mxGeometry x="270" y="630" width="260" height="60" as="geometry"/></mxCell><mxCell id="14" value="" style="endArrow=classic;html=1;" edge="1" parent="1" source="7" target="13"><mxGeometry width="50" height="50" relative="1" as="geometry"><mxPoint x="403" y="560" as="sourcePoint"/><mxPoint x="410" y="535" as="targetPoint"/></mxGeometry></mxCell><mxCell id="15" value="AsyncCamelliaRedisTemplate.java" style="rounded=1;whiteSpace=wrap;html=1;" vertex="1" parent="1"><mxGeometry x="270" y="730" width="260" height="60" as="geometry"/></mxCell><mxCell id="16" value="" style="endArrow=classic;html=1;" edge="1" parent="1" source="13" target="15"><mxGeometry width="50" height="50" relative="1" as="geometry"><mxPoint x="430" y="600" as="sourcePoint"/><mxPoint x="480" y="550" as="targetPoint"/></mxGeometry></mxCell><mxCell id="17" value="remote&lt;br&gt;local&lt;br&gt;custom" style="rounded=1;whiteSpace=wrap;html=1;align=center;" vertex="1" parent="1"><mxGeometry x="605" y="640" width="120" height="60" as="geometry"/></mxCell><mxCell id="18" value="" style="endArrow=none;html=1;" edge="1" parent="1" source="13" target="17"><mxGeometry width="50" height="50" relative="1" as="geometry"><mxPoint x="430" y="640" as="sourcePoint"/><mxPoint x="480" y="590" as="targetPoint"/></mxGeometry></mxCell><mxCell id="19" value="&lt;p style=&quot;line-height: 150% ; font-size: 12px&quot;&gt;&lt;/p&gt;&lt;div style=&quot;font-size: 12px&quot;&gt;AsyncCamelliaRedisClient.java&lt;/div&gt;&lt;div style=&quot;font-size: 12px&quot;&gt;AsyncCamelliaRedisClusterClient.java&lt;/div&gt;&lt;div style=&quot;font-size: 12px&quot;&gt;AsyncCamelliaRedisSentinelClient.java&lt;/div&gt;&lt;div style=&quot;font-size: 12px&quot;&gt;AsyncCamelliaRedisSentinelSlavesClient.java&lt;/div&gt;&lt;p style=&quot;font-size: 12px&quot;&gt;&lt;/p&gt;" style="rounded=1;whiteSpace=wrap;html=1;spacing=22;fontSize=12;spacingTop=0;" vertex="1" parent="1"><mxGeometry x="605" y="720" width="260" height="100" as="geometry"/></mxCell><mxCell id="20" value="" style="endArrow=none;html=1;fontSize=12;" edge="1" parent="1" source="15" target="19"><mxGeometry width="50" height="50" relative="1" as="geometry"><mxPoint x="430" y="630" as="sourcePoint"/><mxPoint x="480" y="580" as="targetPoint"/></mxGeometry></mxCell><mxCell id="21" value="Protocol decoding" style="whiteSpace=wrap;html=1;rounded=1;arcSize=50;align=center;verticalAlign=middle;strokeWidth=1;autosize=1;spacing=4;treeFolding=1;treeMoving=1;newEdgeStyle={&quot;edgeStyle&quot;:&quot;entityRelationEdgeStyle&quot;,&quot;startArrow&quot;:&quot;none&quot;,&quot;endArrow&quot;:&quot;none&quot;,&quot;segment&quot;:10,&quot;curved&quot;:1};fontSize=12;" vertex="1" parent="1"><mxGeometry x="65" y="250" width="140" height="30" as="geometry"/></mxCell><mxCell id="22" value="" style="edgeStyle=entityRelationEdgeStyle;startArrow=none;endArrow=none;segment=10;curved=1;fontSize=12;" edge="1" parent="1" source="4" target="21"><mxGeometry relative="1" as="geometry"><mxPoint x="260" y="300" as="sourcePoint"/></mxGeometry></mxCell><mxCell id="23" value="&lt;div&gt;Account authentication&lt;/div&gt;&lt;div&gt;request monitoring&lt;/div&gt;&lt;div&gt;bid/bgroup analysis&lt;/div&gt;" style="whiteSpace=wrap;html=1;rounded=1;arcSize=50;align=center;verticalAlign=middle;strokeWidth=1;autosize=1;spacing=4;treeFolding=1;treeMoving=1;newEdgeStyle={&quot;edgeStyle&quot;:&quot;entityRelationEdgeStyle&quot;,&quot;startArrow&quot;:&quot;none&quot;,&quot;endArrow&quot;:&quot;none&quot;,&quot;segment&quot;:10,&quot;curved&quot;:1};fontSize=12;" vertex="1" parent="1"><mxGeometry x="48" y="322" width="162" height="68" as="geometry"/></mxCell><mxCell id="24" value="" style="edgeStyle=entityRelationEdgeStyle;startArrow=none;endArrow=none;segment=10;curved=1;fontSize=12;" edge="1" parent="1" source="5" target="23"><mxGeometry relative="1" as="geometry"><mxPoint x="100" y="390" as="sourcePoint"/></mxGeometry></mxCell><mxCell id="25" value="Initialization of various configurations and parameters" style="whiteSpace=wrap;html=1;rounded=1;arcSize=50;align=center;verticalAlign=middle;strokeWidth=1;autosize=1;spacing=4;treeFolding=1;treeMoving=1;newEdgeStyle={&quot;edgeStyle&quot;:&quot;entityRelationEdgeStyle&quot;,&quot;startArrow&quot;:&quot;none&quot;,&quot;endArrow&quot;:&quot;none&quot;,&quot;segment&quot;:10,&quot;curved&quot;:1};fontSize=12;" vertex="1" parent="1"><mxGeometry x="-80" y="445" width="320" height="30" as="geometry"/></mxCell><mxCell id="26" value="" style="edgeStyle=entityRelationEdgeStyle;startArrow=none;endArrow=none;segment=10;curved=1;fontSize=12;" edge="1" parent="1" source="6" target="25"><mxGeometry relative="1" as="geometry"><mxPoint x="270" y="450" as="sourcePoint"/></mxGeometry></mxCell><mxCell id="27" value="&lt;div&gt;Commands are forwarded through this module, and multiple function modules will be filtered before forwarding&lt;/div&gt;&lt;div&gt;Contains hot keys, command interceptors, big keys, value converters, hot key caches, etc.&lt;/div&gt;" style="whiteSpace=wrap;html=1;rounded=1;arcSize=50;align=center;verticalAlign=middle;strokeWidth=1;autosize=1;spacing=4;treeFolding=1;treeMoving=1;newEdgeStyle={&quot;edgeStyle&quot;:&quot;entityRelationEdgeStyle&quot;,&quot;startArrow&quot;:&quot;none&quot;,&quot;endArrow&quot;:&quot;none&quot;,&quot;segment&quot;:10,&quot;curved&quot;:1};fontSize=12;" vertex="1" parent="1"><mxGeometry x="-290" y="524" width="530" height="56" as="geometry"/></mxCell><mxCell id="28" value="" style="edgeStyle=entityRelationEdgeStyle;startArrow=none;endArrow=none;segment=10;curved=1;fontSize=12;" edge="1" parent="1" source="7" target="27"><mxGeometry relative="1" as="geometry"><mxPoint x="40" y="550" as="sourcePoint"/></mxGeometry></mxCell><mxCell id="29" value="&lt;div&gt;Choose an appropriate route based on contextual information&lt;/div&gt;&lt;div&gt;A routing rule corresponds to an instance of AsyncCamelliaRedisTemplate&lt;/div&gt;" style="whiteSpace=wrap;html=1;rounded=1;arcSize=50;align=center;verticalAlign=middle;strokeWidth=1;autosize=1;spacing=4;treeFolding=1;treeMoving=1;newEdgeStyle={&quot;edgeStyle&quot;:&quot;entityRelationEdgeStyle&quot;,&quot;startArrow&quot;:&quot;none&quot;,&quot;endArrow&quot;:&quot;none&quot;,&quot;segment&quot;:10,&quot;curved&quot;:1};fontSize=12;" vertex="1" parent="1"><mxGeometry x="-210" y="610" width="430" height="40" as="geometry"/></mxCell><mxCell id="30" value="" style="edgeStyle=entityRelationEdgeStyle;startArrow=none;endArrow=none;segment=10;curved=1;fontSize=12;" edge="1" parent="1" source="13" target="29"><mxGeometry relative="1" as="geometry"><mxPoint x="40" y="670" as="sourcePoint"/></mxGeometry></mxCell><mxCell id="31" value="&lt;div&gt;Each instance corresponds to a route&lt;/div&gt;&lt;div&gt;Currently supports redis-standalone, redis-sentinel, redis-cluster, etc. (and various combinations of reading, writing, and sharding)&lt;/div&gt;" style="whiteSpace=wrap;html=1;rounded=1;arcSize=50;align=center;verticalAlign=middle;strokeWidth=1;autosize=1;spacing=4;treeFolding=1;treeMoving=1;newEdgeStyle={&quot;edgeStyle&quot;:&quot;entityRelationEdgeStyle&quot;,&quot;startArrow&quot;:&quot;none&quot;,&quot;endArrow&quot;:&quot;none&quot;,&quot;segment&quot;:10,&quot;curved&quot;:1};fontSize=12;" vertex="1" parent="1"><mxGeometry x="-320" y="700" width="560" height="60" as="geometry"/></mxCell><mxCell id="32" value="" style="edgeStyle=entityRelationEdgeStyle;startArrow=none;endArrow=none;segment=10;curved=1;fontSize=12;" edge="1" parent="1" source="15" target="31"><mxGeometry relative="1" as="geometry"><mxPoint x="71.5" y="770" as="sourcePoint"/></mxGeometry></mxCell><mxCell id="33" value="RedisClientHub.java" style="rounded=1;whiteSpace=wrap;html=1;" vertex="1" parent="1"><mxGeometry x="270" y="840" width="260" height="60" as="geometry"/></mxCell><mxCell id="34" value="RedisClient.java" style="rounded=1;whiteSpace=wrap;html=1;" vertex="1" parent="1"><mxGeometry x="270" y="960" width="260" height="60" as="geometry"/></mxCell><mxCell id="35" value="" style="endArrow=classic;html=1;fontSize=12;" edge="1" parent="1" source="15" target="33"><mxGeometry width="50" height="50" relative="1" as="geometry"><mxPoint x="480" y="920" as="sourcePoint"/><mxPoint x="530" y="870" as="targetPoint"/></mxGeometry></mxCell><mxCell id="36" value="" style="endArrow=classic;html=1;fontSize=12;" edge="1" parent="1" source="33" target="34"><mxGeometry width="50" height="50" relative="1" as="geometry"><mxPoint x="480" y="920" as="sourcePoint"/><mxPoint x="530" y="870" as="targetPoint"/></mxGeometry></mxCell><mxCell id="37" value="&lt;div&gt;Each instance corresponds to a route&lt;/div&gt;&lt;div&gt;Currently supports redis-standalone, redis-sentinel, redis-cluster, etc. (and various combinations of reading, writing, and sharding)&lt;/div&gt;" style="whiteSpace=wrap;html=1;rounded=1;arcSize=50;align=center;verticalAlign=middle;strokeWidth=1;autosize=1;spacing=4;treeFolding=1;treeMoving=1;newEdgeStyle={&quot;edgeStyle&quot;:&quot;entityRelationEdgeStyle&quot;,&quot;startArrow&quot;:&quot;none&quot;,&quot;endArrow&quot;:&quot;none&quot;,&quot;segment&quot;:10,&quot;curved&quot;:1};fontSize=12;" vertex="1" parent="1"><mxGeometry x="-310" y="820" width="555" height="60" as="geometry"/></mxCell><mxCell id="38" value="" style="edgeStyle=entityRelationEdgeStyle;startArrow=none;endArrow=none;segment=10;curved=1;fontSize=12;" edge="1" parent="1" source="33" target="37"><mxGeometry relative="1" as="geometry"><mxPoint x="302.5" y="880" as="sourcePoint"/></mxGeometry></mxCell><mxCell id="39" value="Each instance represents a connection to the backend" style="whiteSpace=wrap;html=1;rounded=1;arcSize=50;align=center;verticalAlign=middle;strokeWidth=1;autosize=1;spacing=4;treeFolding=1;treeMoving=1;newEdgeStyle={&quot;edgeStyle&quot;:&quot;entityRelationEdgeStyle&quot;,&quot;startArrow&quot;:&quot;none&quot;,&quot;endArrow&quot;:&quot;none&quot;,&quot;segment&quot;:10,&quot;curved&quot;:1};fontSize=12;" vertex="1" parent="1"><mxGeometry x="-197.5" y="975" width="330" height="30" as="geometry"/></mxCell><mxCell id="40" value="" style="edgeStyle=entityRelationEdgeStyle;startArrow=none;endArrow=none;segment=10;curved=1;fontSize=12;" edge="1" parent="1" source="34" target="39"><mxGeometry relative="1" as="geometry"><mxPoint x="20" y="990" as="sourcePoint"/></mxGeometry></mxCell><mxCell id="41" value="code entry" style="whiteSpace=wrap;html=1;rounded=1;arcSize=50;align=center;verticalAlign=middle;strokeWidth=1;autosize=1;spacing=4;treeFolding=1;treeMoving=1;newEdgeStyle={&quot;edgeStyle&quot;:&quot;entityRelationEdgeStyle&quot;,&quot;startArrow&quot;:&quot;none&quot;,&quot;endArrow&quot;:&quot;none&quot;,&quot;segment&quot;:10,&quot;curved&quot;:1};fontSize=12;" vertex="1" parent="1"><mxGeometry x="-314" y="248" width="100" height="30" as="geometry"/></mxCell><mxCell id="42" value="" style="edgeStyle=entityRelationEdgeStyle;startArrow=none;endArrow=none;segment=10;curved=1;fontSize=12;" edge="1" parent="1" source="3" target="41"><mxGeometry relative="1" as="geometry"><mxPoint x="-200" y="340" as="sourcePoint"/></mxGeometry></mxCell><mxCell id="43" value="ReplyDecoder.java" style="rounded=1;whiteSpace=wrap;html=1;" vertex="1" parent="1"><mxGeometry x="910" y="960" width="260" height="60" as="geometry"/></mxCell><mxCell id="44" value="AsyncTask.java" style="rounded=1;whiteSpace=wrap;html=1;" vertex="1" parent="1"><mxGeometry x="910" y="520" width="260" height="60" as="geometry"/></mxCell><mxCell id="45" value="AsyncTaskQueue.java" style="rounded=1;whiteSpace=wrap;html=1;" vertex="1" parent="1"><mxGeometry x="910" y="360" width="260" height="60" as="geometry"/></mxCell><mxCell id="46" value="ReplyEncoder.java" style="rounded=1;whiteSpace=wrap;html=1;" vertex="1" parent="1"><mxGeometry x="910" y="250" width="260" height="60" as="geometry"/></mxCell><mxCell id="47" value="" style="endArrow=classic;html=1;fontSize=12;" edge="1" parent="1" source="34" target="43"><mxGeometry width="50" height="50" relative="1" as="geometry"><mxPoint x="740" y="700" as="sourcePoint"/><mxPoint x="790" y="650" as="targetPoint"/></mxGeometry></mxCell><mxCell id="48" value="" style="endArrow=classic;html=1;fontSize=12;" edge="1" parent="1" source="43" target="44"><mxGeometry width="50" height="50" relative="1" as="geometry"><mxPoint x="740" y="700" as="sourcePoint"/><mxPoint x="790" y="650" as="targetPoint"/></mxGeometry></mxCell><mxCell id="49" value="client" style="rounded=1;whiteSpace=wrap;html=1;fontSize=12;align=center;" vertex="1" parent="1"><mxGeometry x="620" y="130" width="120" height="60" as="geometry"/></mxCell><mxCell id="50" value="" style="endArrow=classic;html=1;fontSize=12;" edge="1" parent="1" source="49" target="4"><mxGeometry width="50" height="50" relative="1" as="geometry"><mxPoint x="740" y="450" as="sourcePoint"/><mxPoint x="790" y="400" as="targetPoint"/></mxGeometry></mxCell><mxCell id="51" value="" style="endArrow=classic;html=1;fontSize=12;" edge="1" parent="1" source="46" target="49"><mxGeometry width="50" height="50" relative="1" as="geometry"><mxPoint x="740" y="450" as="sourcePoint"/><mxPoint x="790" y="400" as="targetPoint"/></mxGeometry></mxCell><mxCell id="52" value="" style="endArrow=classic;html=1;fontSize=12;" edge="1" parent="1" source="45" target="46"><mxGeometry width="50" height="50" relative="1" as="geometry"><mxPoint x="740" y="450" as="sourcePoint"/><mxPoint x="790" y="400" as="targetPoint"/></mxGeometry></mxCell><mxCell id="53" value="" style="endArrow=classic;html=1;fontSize=12;" edge="1" parent="1" source="44" target="45"><mxGeometry width="50" height="50" relative="1" as="geometry"><mxPoint x="740" y="450" as="sourcePoint"/><mxPoint x="790" y="400" as="targetPoint"/></mxGeometry></mxCell><mxCell id="54" value="&lt;div&gt;Receive response from backend redis&lt;/div&gt;&lt;div&gt;Callback to AsyncTask through CompletableFuture&lt;/div&gt;" style="whiteSpace=wrap;html=1;rounded=1;arcSize=50;align=center;verticalAlign=middle;strokeWidth=1;autosize=1;spacing=4;treeFolding=1;treeMoving=1;newEdgeStyle={&quot;edgeStyle&quot;:&quot;entityRelationEdgeStyle&quot;,&quot;startArrow&quot;:&quot;none&quot;,&quot;endArrow&quot;:&quot;none&quot;,&quot;segment&quot;:10,&quot;curved&quot;:1};fontSize=12;" vertex="1" parent="1"><mxGeometry x="1195" y="950" width="310" height="40" as="geometry"/></mxCell><mxCell id="55" value="" style="edgeStyle=entityRelationEdgeStyle;startArrow=none;endArrow=none;segment=10;curved=1;fontSize=12;" edge="1" parent="1" target="54"><mxGeometry relative="1" as="geometry"><mxPoint x="1170" y="970" as="sourcePoint"/></mxGeometry></mxCell><mxCell id="56" value="&lt;div&gt;The back-end returns the package and goes through the functional modules, including:&lt;/div&gt;&lt;div&gt;Big key, hot key cache, value converter, RT monitoring, etc.&lt;/div&gt;" style="whiteSpace=wrap;html=1;rounded=1;arcSize=50;align=center;verticalAlign=middle;strokeWidth=1;autosize=1;spacing=4;treeFolding=1;treeMoving=1;newEdgeStyle={&quot;edgeStyle&quot;:&quot;entityRelationEdgeStyle&quot;,&quot;startArrow&quot;:&quot;none&quot;,&quot;endArrow&quot;:&quot;none&quot;,&quot;segment&quot;:10,&quot;curved&quot;:1};fontSize=12;" vertex="1" parent="1"><mxGeometry x="1200" y="505" width="310" height="95" as="geometry"/></mxCell><mxCell id="57" value="" style="edgeStyle=entityRelationEdgeStyle;startArrow=none;endArrow=none;segment=10;curved=1;fontSize=12;" edge="1" parent="1" source="44" target="56"><mxGeometry relative="1" as="geometry"><mxPoint x="1110" y="730" as="sourcePoint"/></mxGeometry></mxCell><mxCell id="58" value="Guarantee one-to-one correspondence between requests and responses through a queue" style="whiteSpace=wrap;html=1;rounded=1;arcSize=50;align=center;verticalAlign=middle;strokeWidth=1;autosize=1;spacing=4;treeFolding=1;treeMoving=1;newEdgeStyle={&quot;edgeStyle&quot;:&quot;entityRelationEdgeStyle&quot;,&quot;startArrow&quot;:&quot;none&quot;,&quot;endArrow&quot;:&quot;none&quot;,&quot;segment&quot;:10,&quot;curved&quot;:1};fontSize=12;" vertex="1" parent="1"><mxGeometry x="1210" y="340" width="280" height="70" as="geometry"/></mxCell><mxCell id="59" value="" style="edgeStyle=entityRelationEdgeStyle;startArrow=none;endArrow=none;segment=10;curved=1;fontSize=12;" edge="1" parent="1" source="45" target="58"><mxGeometry relative="1" as="geometry"><mxPoint x="1160" y="390" as="sourcePoint"/></mxGeometry></mxCell><mxCell id="60" value="Encode the response back to the client" style="whiteSpace=wrap;html=1;rounded=1;arcSize=50;align=center;verticalAlign=middle;strokeWidth=1;autosize=1;spacing=4;treeFolding=1;treeMoving=1;newEdgeStyle={&quot;edgeStyle&quot;:&quot;entityRelationEdgeStyle&quot;,&quot;startArrow&quot;:&quot;none&quot;,&quot;endArrow&quot;:&quot;none&quot;,&quot;segment&quot;:10,&quot;curved&quot;:1};fontSize=12;" vertex="1" parent="1"><mxGeometry x="1215" y="250" width="250" height="30" as="geometry"/></mxCell><mxCell id="61" value="" style="edgeStyle=entityRelationEdgeStyle;startArrow=none;endArrow=none;segment=10;curved=1;fontSize=12;" edge="1" parent="1" source="46" target="60"><mxGeometry relative="1" as="geometry"><mxPoint x="960" y="540" as="sourcePoint"/></mxGeometry></mxCell><mxCell id="62" value="" style="endArrow=none;html=1;" edge="1" parent="1" source="11" target="44"><mxGeometry width="50" height="50" relative="1" as="geometry"><mxPoint x="750" y="460" as="sourcePoint"/><mxPoint x="800" y="410" as="targetPoint"/></mxGeometry></mxCell><mxCell id="63" value="ProxyMonitorCollector.java" style="rounded=1;whiteSpace=wrap;html=1;" vertex="1" parent="1"><mxGeometry x="617.5" y="325" width="170" height="60" as="geometry"/></mxCell><mxCell id="64" value="" style="endArrow=classic;html=1;entryX=1;entryY=0.25;entryDx=0;entryDy=0;" edge="1" parent="1" source="63" target="5"><mxGeometry width="50" height="50" relative="1" as="geometry"><mxPoint x="680" y="430" as="sourcePoint"/><mxPoint x="730" y="380" as="targetPoint"/></mxGeometry></mxCell><mxCell id="65" value="monitorPlugin" style="rounded=0;whiteSpace=wrap;html=1;verticalAlign=top;" vertex="1" parent="1"><mxGeometry x="620" y="495" width="80" height="30" as="geometry"/></mxCell><mxCell id="66" value="hotKeyPlugin" style="rounded=0;whiteSpace=wrap;html=1;verticalAlign=top;" vertex="1" parent="1"><mxGeometry x="710" y="495" width="80" height="30" as="geometry"/></mxCell><mxCell id="67" value="bigKeyPlugin" style="rounded=0;whiteSpace=wrap;html=1;verticalAlign=top;" vertex="1" parent="1"><mxGeometry x="620" y="540" width="80" height="30" as="geometry"/></mxCell><mxCell id="68" value="bigKeyPlugin" style="rounded=0;whiteSpace=wrap;html=1;verticalAlign=top;" vertex="1" parent="1"><mxGeometry x="710" y="540" width="80" height="30" as="geometry"/></mxCell><mxCell id="69" value="customPlugin" style="rounded=0;whiteSpace=wrap;html=1;verticalAlign=top;" vertex="1" parent="1"><mxGeometry x="620" y="580" width="80" height="30" as="geometry"/></mxCell><mxCell id="70" value="......" style="rounded=0;whiteSpace=wrap;html=1;verticalAlign=top;" vertex="1" parent="1"><mxGeometry x="710" y="580" width="80" height="30" as="geometry"/></mxCell><mxCell id="71" value="" style="endArrow=classic;html=1;rounded=0;entryX=0.5;entryY=0;entryDx=0;entryDy=0;" edge="1" parent="1" source="63" target="11"><mxGeometry width="50" height="50" relative="1" as="geometry"><mxPoint x="690" y="500" as="sourcePoint"/><mxPoint x="740" y="450" as="targetPoint"/></mxGeometry></mxCell><mxCell id="72" value="" style="endArrow=classic;html=1;rounded=0;exitX=1;exitY=0.5;exitDx=0;exitDy=0;entryX=0;entryY=0.5;entryDx=0;entryDy=0;" edge="1" parent="1" source="63" target="45"><mxGeometry width="50" height="50" relative="1" as="geometry"><mxPoint x="690" y="500" as="sourcePoint"/><mxPoint x="740" y="450" as="targetPoint"/></mxGeometry></mxCell><mxCell id="73" value="" style="endArrow=classic;html=1;rounded=0;entryX=0;entryY=0.5;entryDx=0;entryDy=0;exitX=1;exitY=0.5;exitDx=0;exitDy=0;" edge="1" parent="1" source="63" target="46"><mxGeometry width="50" height="50" relative="1" as="geometry"><mxPoint x="690" y="500" as="sourcePoint"/><mxPoint x="740" y="450" as="targetPoint"/></mxGeometry></mxCell></root></mxGraphModel></diagram></mxfile>